<svg width="1254" height="1254" viewBox="0 0 1254 1254" fill="none" xmlns="http://www.w3.org/2000/svg">
<path d="M572.074 170.163C579.764 154.797 606.975 130.614 625.267 132.056C646.306 133.715 671.055 137.492 691.096 144.044C700.256 147.037 705.614 167.023 708.4 175.518C712.153 171.634 719.023 164.728 724.191 163.084C736.382 159.208 762.736 174.14 774.161 178.832C802.56 190.49 800.895 195.05 810.587 221.624C822.533 226.8 870.661 246.171 876.49 253.633C883.801 262.983 873.753 311.881 871.022 325.255C891.816 321.425 917.863 318.13 938.816 315.935C955.661 314.153 972.56 312.879 989.484 312.115C1013.59 310.999 1032.22 306.823 1027.17 338.243C1015.46 410.94 968.893 484.652 888.375 488.155C899.206 514.062 911.667 539.257 925.682 563.588C931.775 574.399 938.449 584.859 944.566 595.659C951.43 607.781 936.342 619.793 928.462 627.227C918.286 636.815 906.229 645.253 894.283 652.405C910.215 680.271 929.197 706.777 950.162 730.982C953.426 734.747 957.822 740.87 956.726 745.885C953.205 762.013 929.497 781.576 917.428 790.939C919.455 793.039 927.807 800.625 928.689 802.523C933.942 813.808 941.406 820.525 949.819 829.746C958.955 839.727 968.342 849.487 977.955 859.008C998.295 879.08 1009.65 882.245 986.313 909.542C970.797 927.697 953.726 941.266 932.877 952.74C936.269 959.322 940.047 965.807 943.378 972.413C949.115 983.79 948.264 990.311 938.565 998.038C950.634 1021.65 966.045 1055.57 969.517 1081.96C990.262 1085.38 1010.09 1087.47 1030.21 1094.68C1042.33 1099.03 1049.28 1107.32 1033.22 1113.7C1010.02 1122.91 983.38 1125.67 958.857 1129.38C862.529 1141.12 763.244 1144.95 666.279 1145.63C557.75 1146.38 446.016 1144.61 338.061 1134.29C312.411 1132.09 286.86 1128.85 261.472 1124.58C256.25 1123.66 201.936 1114.34 208.536 1103.56C215.877 1091.57 265.424 1082.81 279.756 1082.44C283.167 1055.91 297.132 1022.9 308.379 998.73C307.175 998.204 305.981 997.653 304.798 997.077C283.528 986.668 307.76 956.047 315.689 942.055C310.257 938.939 301.149 933.067 295.817 929.013C283.61 919.719 260.395 901.49 257.428 885.956C255.926 878.1 265.096 867.703 269.898 861.501C262.31 855.469 255.138 848.936 248.429 841.937C238.929 831.908 217.692 806.822 217.656 791.741C217.647 788.171 220.108 784.914 222.757 782.715C231.501 775.441 241.319 768.4 250.346 761.352C268.186 747.496 285.662 733.174 302.756 718.405C298.287 713.88 294.005 709.177 289.918 704.304C282.986 695.976 267.354 676.578 268.422 665.465C268.672 662.863 270.579 658.999 272.667 657.346C280.728 650.96 290.032 644.885 298.369 638.86C313.82 627.618 329.005 616.009 343.91 604.05C339.556 601.078 335.304 597.961 331.159 594.704C322.756 588.075 302.084 570.113 301.138 559.828C300.385 551.644 324.244 524.453 330.075 517.4C344.186 500.411 358.436 483.539 372.826 466.785C356.663 458.818 344.687 450.921 332.886 436.883C302.42 400.637 293.762 351.026 297.651 304.942C298.517 293.555 300.841 282.403 314.807 282.997C327.436 283.536 340.242 284.956 352.841 286.452C377.227 289.349 401.804 291.901 426.117 295.353C426.786 271.543 430.713 244.064 436.565 221C439.079 211.09 454.562 207.749 463.263 204.553C473.44 200.886 483.481 196.851 493.368 192.458C511.34 184.603 528.087 175.24 545.669 166.661C555.297 161.963 563.055 166.488 572.074 170.163Z" fill="#1C1D1F"/>
<path d="M712.931 1066.86C714.051 1079.46 713.543 1098.06 724.001 1106.92C740.999 1121.31 821.254 1124.17 844.595 1124.1C864.152 1124.07 883.697 1123.03 903.143 1120.97C919.412 1119.18 936.398 1116.76 951.766 1111.02C965.274 1105.98 970.393 1095.96 969.517 1081.96C990.262 1085.38 1010.09 1087.47 1030.21 1094.68C1042.33 1099.03 1049.28 1107.32 1033.22 1113.7C1010.02 1122.91 983.38 1125.67 958.857 1129.38C862.529 1141.12 763.244 1144.95 666.279 1145.63C557.75 1146.38 446.016 1144.61 338.061 1134.29C312.411 1132.09 286.86 1128.85 261.472 1124.58C256.25 1123.66 201.936 1114.34 208.536 1103.56C215.877 1091.57 265.424 1082.81 279.756 1082.44C279.432 1106.12 293.713 1112.14 314.39 1116.55C369.397 1128.01 426.668 1128.67 482.187 1120.52C523.456 1114.46 524.342 1109.3 532.259 1071.52C550.923 1070.55 571.328 1070.55 590.106 1070.36C619.818 1069.83 649.539 1069.86 679.248 1070.47C683.761 1070.55 710.427 1071.62 712.594 1070.07L712.931 1066.86Z" fill="#F0D4B7"/>
<path d="M638.94 425.713C642.785 410.246 646.716 394.8 650.727 379.375C653.372 368.842 656.231 356.028 659.366 345.777C664.271 370.399 670.504 409.803 673.057 434.977C674.447 443.535 674.625 447.846 683.032 451.906C688.696 453.026 697.899 453.27 703.832 453.458C730.743 454.104 757.666 452.593 784.331 448.939C794.092 447.691 798.923 447.997 805.891 440.398L806.515 440.812C808.971 442.424 809.583 442.764 812.314 443.762L812.351 444.559C775.037 473.423 754.2 520.855 746.528 566.697C746.222 568.549 746.222 571.032 746.167 572.943C772.373 580.791 797.202 592.79 811.677 617.748C814.598 622.775 817.843 632.076 818.106 637.893C822.601 657.597 807.611 681.354 792.402 692.651C754.108 721.099 700.127 725.293 654.149 720.033C609.003 714.872 532.219 693.6 538.974 635.505C546.857 589.491 599.076 573.613 638.511 566.82C636.76 532.115 616.689 484.019 594.778 457.481C587.095 448.176 580.827 442.024 572.18 433.67C583.065 436.612 619.364 447.434 630.319 442.882C635.419 440.761 637.507 431.027 638.94 425.713Z" fill="#FDFCEF"/>
<path d="M818.106 637.893C822.601 657.597 807.611 681.354 792.402 692.651C754.108 721.099 700.127 725.293 654.149 720.034C609.003 714.872 532.219 693.6 538.974 635.505C541.095 638.279 541.755 640.513 543.29 643.502C545.724 648.339 548.743 652.858 552.28 656.954C572.112 679.566 613.897 694.053 644.004 698.682C692.89 705.804 749.216 705.026 791.991 677.227C803.209 669.935 814.426 655.968 817.837 642.908C818.174 641.616 818.027 639.258 818.106 637.893Z" fill="#F0D4B7"/>
<path d="M683.032 451.906C688.696 453.026 697.899 453.27 703.832 453.458C730.743 454.104 757.666 452.593 784.332 448.939C775.943 465.894 757.58 466.024 740.999 465.908C722.073 465.777 703.336 461.491 684.379 460.227C683.798 457.389 683.142 454.8 683.032 451.906Z" fill="#F0D4B7"/>
<path d="M638.939 425.713C642.785 410.246 646.716 394.8 650.726 379.375C653.371 368.842 656.231 356.028 659.366 345.777C664.27 370.399 670.504 409.803 673.057 434.977C669.432 431.974 660.401 402.187 657.566 394.885C653.518 402.069 644.579 421.485 638.939 425.713Z" fill="#F0D4B7"/>
<path d="M621.679 626.461C641.603 625.316 661.148 656.477 638.15 664.528C616.499 665.165 599.149 634.887 621.679 626.461Z" fill="#1C1D1F"/>
<path d="M761.823 631.997C787.001 629.119 779.691 660.444 757.543 667.859C732.819 672.427 739.756 641.028 761.823 631.997Z" fill="#1C1D1F"/>
<path d="M554.411 183.439C579.553 192.606 601.374 206.699 622.634 222.674C611.565 225.152 603.292 228.754 595.208 236.975C601.111 237.045 623.467 236.758 626.627 240.853C626.076 242.123 626.186 241.964 625.408 243.125C626.737 244.764 626.774 244.923 628.543 246.205C634.44 243.52 642.173 238.404 647.61 243.632C649.717 240.715 651.456 240.257 654.805 239.268L666.494 239.24C676.279 239.54 702.387 240.374 708.571 247.882C711.376 251.288 717.958 260.142 720.689 264C751.329 307.212 779.966 375.436 789.488 427.471C760.666 432.76 730.37 434.177 701.114 433.717C698.119 433.67 694.684 433.804 692.021 432.291C689.504 423.563 685.953 395.127 684.312 384.74C679.897 354.78 674.429 324.985 667.914 295.409C666.916 290.857 664.314 276.15 661.473 273.821C656.409 277.421 624.857 406.62 620.118 423.821C597.49 420.994 537.601 403.729 518.487 392.368C533.694 362.088 558.39 327.802 578.277 300.257C582.053 295.028 602.902 270.193 603.649 266.084L603.021 265.456C591.878 267.099 551.691 302.217 542.486 310.572C533.255 320.258 524.18 329.401 515.121 339.311C506.961 348.236 499.897 357.423 492.092 366.314C487.566 364.427 483.017 362.594 478.448 360.816C435.604 346.35 388.019 340.783 345.098 325.096C342.693 324.217 339.161 323.355 336.619 323.472C333.123 326.425 335.429 337.009 335.914 341.418C338.091 361.241 343.534 378.87 352.475 396.688C345.191 398.66 327.891 374.701 323.184 372.119C316.829 353.187 315.57 323.379 318.197 303.722C327.598 303.938 341.7 305.799 351.344 306.902C369.461 308.96 387.565 311.132 405.654 313.418C414.941 314.603 424.585 316.442 433.93 316.84C436.081 316.932 437.906 316.802 439.925 316.007C447.666 312.959 462.224 300.707 470.179 295.459C492.626 280.651 515.045 266.776 539.166 254.843C543.232 252.833 566.798 243.117 567.938 240.706C564.475 237.04 527.97 233.36 520.667 232.544C508.008 230.722 495.276 229.452 482.507 228.738C477.003 228.413 462.425 228.016 457.82 226.865C487.165 215.861 515.231 204.3 542.69 189.1C546.427 187.031 550.446 184.996 554.411 183.439Z" fill="#FDFCEF"/>
<path d="M478.447 360.816C478.56 360.626 479.05 359.775 479.177 359.651C497.21 341.973 517.477 326.7 538.012 312.066C539.232 311.196 541.199 310.79 542.486 310.573C533.254 320.259 524.18 329.402 515.12 339.311C506.96 348.236 499.897 357.423 492.091 366.314C487.565 364.427 483.017 362.594 478.447 360.816Z" fill="#F0D4B7"/>
<path d="M647.61 243.633C649.717 240.716 651.456 240.257 654.805 239.268C659.954 251.124 660.793 255.977 660.665 268.935C656.654 257.855 654.646 253.332 647.61 243.633Z" fill="#E69E75"/>
<path d="M618.306 251.684C619.671 249.669 623.32 243.992 625.408 243.125C626.737 244.764 626.774 244.923 628.543 246.205C625.445 248.014 621.526 249.969 618.306 251.684Z" fill="#E69E75"/>
<path d="M418.265 822.02C437.219 832.012 474.082 850.137 495.365 853.345C491.312 869.124 494.475 874.353 510.184 879.172C526.721 884.254 542.98 888.406 559.91 891.957C586.92 897.443 614.295 900.927 641.818 902.385C640.091 914.3 637.948 926.148 635.401 937.917C631.58 953.579 625.151 980.117 614.356 991.971C598.709 994.592 583.946 996.967 568.088 998.376C561.944 999.361 551.238 999.87 544.912 1000.21C547.13 986.736 547.169 973.675 546.375 960.113C545.552 953.714 544.121 945.668 541.29 939.962C539.887 939.907 537.649 939.576 536.847 940.715C531.885 947.744 527.599 962.911 524.833 970.791C520.777 982.26 516.502 993.655 512.013 1004.96C502.082 1030.42 505.962 1025.51 483.018 1021.8C476.415 1020.28 467.138 1017.87 461.057 1014.95C456.95 1012.69 457.862 1010.24 453.048 1008.82C444.751 1006.36 407.133 1000.92 402.364 995.957C398.159 991.579 410.142 963.664 406.909 957.382L405.719 957.002C391.304 962.788 379.911 988.077 360.448 985.995C346.132 984.47 332.367 982.107 318.269 979.186C325.082 965.305 336.599 946.801 344.969 933.33C363.186 904.577 381.878 876.123 401.037 847.981L418.265 822.02Z" fill="#FDFCEF"/>
<path d="M418.266 822.02C437.219 832.012 474.083 850.137 495.366 853.345C491.312 869.124 494.475 874.353 510.184 879.172C526.721 884.254 542.98 888.406 559.91 891.957C586.92 897.443 614.295 900.927 641.818 902.385C640.091 914.3 637.948 926.148 635.401 937.917C631.58 953.579 625.151 980.117 614.356 991.971C598.709 994.592 583.947 996.967 568.088 998.376C561.944 999.361 551.238 999.87 544.912 1000.21C547.131 986.736 547.169 973.675 546.375 960.113C545.552 953.714 544.121 945.668 541.29 939.962C539.887 939.907 537.65 939.576 536.847 940.715C531.885 947.744 527.599 962.911 524.833 970.791C520.777 982.26 516.502 993.655 512.013 1004.96C502.082 1030.42 505.962 1025.51 483.019 1021.8C499.327 985.946 511.591 949.048 524.388 911.955C480.342 891.204 442.312 874.819 401.037 847.981L418.266 822.02Z" fill="#F0D4B7"/>
<path d="M531.355 914.018C555.17 922.308 574.596 927.782 599.523 932.491C606.564 933.82 631.751 936.716 635.401 937.916C631.58 953.579 625.151 980.116 614.356 991.97C598.709 994.591 583.946 996.967 568.088 998.375C561.944 999.361 551.238 999.869 544.912 1000.21C547.13 986.735 547.169 973.674 546.375 960.112C545.552 953.713 544.121 945.668 541.289 939.961C540.269 932.185 534.948 921.102 531.355 914.018Z" fill="#FDFCEF"/>
<path d="M546.375 960.112C552.117 963.578 560.411 990.476 568.088 998.375C561.944 999.361 551.238 999.869 544.912 1000.21C547.13 986.735 547.169 973.675 546.375 960.112Z" fill="#F0D4B7"/>
<path d="M804.232 712.398C810.324 707.622 814.163 704.077 819.944 699.087C823.985 706.441 828.228 713.874 832.961 720.811C855.041 754.249 880.066 783.107 908.324 811.347C893.683 824.242 873.361 839.017 854.992 845.422C846.303 832.747 810.998 771.51 802.872 766.808L801.605 766.918C799.174 771.149 812.32 806.032 814.488 812.872C819.074 827.359 824.879 841.638 828.375 856.547C796.407 868.481 753.037 875.835 719.036 878.994C713.666 879.49 702.902 880.409 697.672 880.145C696.282 873.937 695.321 866.938 694.495 860.595C691.262 835.894 687.539 810.961 684.857 786.212C682.793 774.18 681.495 759.411 680.13 747.092C726.059 746.969 765.81 739.462 804.232 712.398Z" fill="#FDFCEF"/>
<path d="M804.232 712.398C810.324 707.622 814.163 704.077 819.944 699.087C823.985 706.441 828.228 713.874 832.961 720.811C827.787 725.361 820.397 733.498 814.819 738.85C785.158 770.433 731.717 784.712 689.455 786.175C687.918 786.224 686.388 786.236 684.857 786.212C682.793 774.18 681.495 759.411 680.13 747.092C726.059 746.969 765.81 739.462 804.232 712.398Z" fill="#E6572B"/>
<path d="M804.231 712.398C810.324 707.622 814.163 704.077 819.943 699.087C823.984 706.441 828.228 713.874 832.961 720.811C827.787 725.361 820.396 733.498 814.818 738.85C813.581 731.821 807.544 718.932 804.231 712.398Z" fill="#F0D4B7"/>
<path d="M848.152 865.033L848.611 865.223C853.956 867.409 854.954 866.962 860.569 866.001C863.925 872.338 867.66 878.853 871.156 885.147L875.32 892.33L908.721 951.062C913.595 959.812 920.875 972.303 924.953 981.255C911.078 986.006 865.737 999.103 851.017 994.125C845.537 992.27 823.635 959.671 817.555 959.855C813.881 965.476 823.549 995.068 819.178 1000.25C809.001 1005.67 792.107 1005.8 781.049 1008.12C774.387 1009.52 763.537 1008.74 761.149 1013.89C755.228 1026.68 747.048 1027.22 733.577 1028.1C728.354 1029.17 710.622 1030.74 706.581 1027.91C702.123 1018.86 701.401 918.291 701.076 901.398C741.176 900.541 791.458 890.113 829.819 878.43C840.369 875.216 843.296 874.395 848.152 865.033Z" fill="#FDFCEF"/>
<path d="M848.152 865.033L848.611 865.223C853.956 867.409 854.954 866.962 860.569 866.001C863.925 872.338 867.66 878.853 871.156 885.147C865.021 886.421 861.157 887.615 855.408 890.432C854.348 890.952 852.615 890.799 851.544 891.179C849.027 891.607 846.364 892.122 843.841 892.415C841.876 890.597 839.561 888.331 837.479 886.733C837.24 889.727 836.965 892.783 836.775 895.777C831.558 898.851 820.28 902.898 814.114 905.274C784.87 916.528 744.917 929.95 713.812 933.299C714.394 945.117 718.625 966.774 720.125 978.836C721.05 986.294 726.003 1021.78 728.514 1027.49C730.675 1028.11 731.385 1028.04 733.577 1028.1C728.354 1029.17 710.622 1030.74 706.581 1027.91C702.123 1018.86 701.401 918.291 701.076 901.398C741.176 900.541 791.458 890.113 829.819 878.43C840.369 875.216 843.296 874.395 848.152 865.033Z" fill="#F0D4B7"/>
<path d="M851.544 891.179C852.615 890.799 854.348 890.952 855.408 890.432C861.157 887.615 865.021 886.421 871.156 885.147L875.32 892.33C871.866 893.965 856.963 891.319 851.544 891.179Z" fill="#F0D4B7"/>
<path d="M536.886 708.094L547.949 714.094C587.167 732.868 615.353 741.201 658.809 745.977L657.535 784.399L654.725 846.481C654.18 857.196 653.825 871.193 652.465 881.652C618.421 882.619 547.151 870.428 515.408 858.464C522.975 822.374 533.003 782.244 537.801 745.763C536.181 743.277 532.22 741.397 529.555 740.191C529.414 737.148 535.789 712.662 536.886 708.094Z" fill="#FDFCEF"/>
<path d="M536.887 708.094L547.949 714.094C587.168 732.868 615.354 741.201 658.809 745.977L657.536 784.399C626.075 780.787 595.34 772.423 566.383 759.601C556.925 755.382 547.404 749.731 538.055 745.659L537.802 745.763C536.182 743.277 532.22 741.397 529.556 740.191C529.415 737.148 535.789 712.662 536.887 708.094Z" fill="#E6572B"/>
<path d="M536.887 708.094L547.949 714.094C544.823 717.64 537.746 741.317 538.055 745.659L537.802 745.763C536.182 743.277 532.22 741.397 529.556 740.191C529.415 737.148 535.789 712.662 536.887 708.094Z" fill="#D14A24"/>
<path d="M396.804 581.498C400.926 580.949 404.009 578.774 407.782 577.174C409.106 583.962 410.892 592.633 413.133 599.175C417.948 592.306 424.779 585.323 431.335 580.093C434.367 591.573 436.571 599.031 441.348 610.075C445.664 619.806 449.276 626.069 454.812 635.162C439.514 669.402 408.971 709.116 385.981 738.85C383.388 741.917 380.809 745.426 378.356 748.641C369.488 744.256 363.297 740.577 355.189 735.103C328.756 716.746 307.615 696.668 290.108 669.537C293.319 666.831 296.959 664.253 300.353 661.773C320.97 646.692 341.276 631.323 360.956 615.03C363.821 612.66 369.431 613.07 372.34 610.233C381.323 601.475 388.551 590.967 396.804 581.498Z" fill="#FDFCEF"/>
<path d="M431.336 580.093C434.368 591.573 436.571 599.031 441.348 610.075C445.665 619.806 449.276 626.069 454.813 635.162C439.515 669.402 408.971 709.116 385.982 738.85C383.389 741.918 380.81 745.426 378.357 748.641C369.489 744.257 363.297 740.577 355.189 735.103C357.481 728.747 368.264 713.562 372.224 705.969C375.017 679.86 381.798 676.768 398.555 657.279C398.548 653.201 398.438 650.323 399.146 646.294C399.291 631.335 405.277 612.057 413.133 599.175C417.949 592.306 424.779 585.323 431.336 580.093Z" fill="#D14A24"/>
<path d="M431.336 580.093C434.368 591.573 436.571 599.031 441.348 610.075C432.294 617.589 421.751 631.097 413.439 639.957C409.462 644.2 404.841 650.586 400.127 654.089C399.754 651.492 399.427 648.896 399.146 646.294C399.291 631.335 405.277 612.057 413.133 599.175C417.949 592.306 424.779 585.323 431.336 580.093Z" fill="#BE3F1F"/>
<path d="M372.224 705.969C372.929 719.801 376.844 728.753 385.982 738.85C383.389 741.917 380.81 745.426 378.357 748.64C369.489 744.256 363.297 740.576 355.189 735.102C357.481 728.747 368.264 713.561 372.224 705.969Z" fill="#F0D4B7"/>
<path d="M468.496 652.962C472.072 657.413 476.101 661.748 479.936 666.004C499.48 684.685 513.915 694.825 536.887 708.094C535.789 712.662 529.415 737.148 529.556 740.191L529.279 740.283C525.027 748.408 521.826 758.125 518.182 766.581C509.291 787.21 501.445 810.643 492.241 830.922C485.848 829.777 476.136 825.754 469.902 823.207C440.89 811.347 409.154 794.502 384.498 775.013C386.709 771.333 392.323 764.322 395.087 760.728C401.27 752.731 407.41 744.697 413.507 736.639C429.335 715.625 444.253 693.943 458.22 671.649C461.806 665.508 465.232 659.275 468.496 652.962Z" fill="#FDFCEF"/>
<path d="M479.936 666.004C499.48 684.685 513.915 694.825 536.887 708.094C535.789 712.662 529.415 737.148 529.556 740.191L529.279 740.283C527.252 737.668 518.329 732.182 515.296 729.671C505.583 721.632 486.022 704.585 479.47 694.09C478.441 679.909 478.01 680.35 479.936 666.004Z" fill="#E6572B"/>
<path d="M468.496 652.962C472.072 657.413 476.101 661.748 479.935 666.004C478.009 680.35 478.44 679.909 479.47 694.09C472.661 687.282 464.423 678.918 458.22 671.649C461.805 665.508 465.232 659.275 468.496 652.962Z" fill="#F0D4B7"/>
<path d="M735.507 254.499C741.703 256.114 756.442 264.987 762.185 268.626C803.669 294.928 839.305 331.279 867.14 371.607C872.265 379.031 880.984 391.281 884.26 399.467C879.209 402.294 874.561 404.265 869.283 406.576C854.423 413.257 833.598 419.918 817.696 422.712C812.027 408.866 806.889 392.006 800.962 377.288C782.605 331.681 764.297 294.085 735.507 254.499Z" fill="#FDFCEF"/>
<path d="M365.712 786.034C374.914 794.986 389.82 804.373 400.721 811.629C395.583 820.415 387.841 831.963 381.923 840.474C363.091 868.701 344.793 895.269 326.951 924.219C311.884 917.484 287.72 897.235 277.898 884.131C282.469 877.286 291.102 866.877 296.408 860.497C311.793 842.274 327.855 824.634 344.558 807.612C351.442 800.258 358.495 793.063 365.712 786.034Z" fill="#E6572B"/>
<path d="M365.712 786.034C374.915 794.986 389.82 804.373 400.722 811.629C395.584 820.415 387.842 831.963 381.923 840.474C370.648 833.72 365.033 829.018 356.08 819.166C353.405 816.221 347.276 809.602 344.559 807.612C351.443 800.258 358.495 793.063 365.712 786.034Z" fill="#D14A24"/>
<path d="M730.002 181.176C745.07 186.542 769.195 196.327 783.003 204.063C783.915 205.848 784.889 207.685 785.752 209.484C798.402 244.207 796.884 235.66 828.754 250.182C839.206 254.666 849.554 259.401 859.78 264.381C859.571 278.649 856.834 300.19 853.583 314.125C853.528 315.432 852.818 318.633 852.53 320.078C844.447 311.458 836.187 303.002 827.768 294.713C822.998 291.514 807.911 278.025 801.88 273.327C782.935 258.583 768.705 250.5 747.973 238.67C739.743 235.197 727.118 228.937 718.349 230.36C716.923 230.718 716.212 229.907 715.416 229.06C713.965 221.723 718.962 213.158 722.115 206.475C725.348 197.503 727.724 190.546 730.002 181.176Z" fill="#E6572B"/>
<path d="M730.002 181.176C745.07 186.542 769.195 196.327 783.003 204.063C783.915 205.848 784.889 207.685 785.752 209.484C798.402 244.207 796.884 235.66 828.754 250.182C827.493 251.048 817.561 247.911 815.057 247.269C792.671 241.528 774.657 239.571 751.757 238.251L747.973 238.67C739.743 235.197 727.118 228.937 718.349 230.36C716.923 230.718 716.212 229.907 715.416 229.06C713.965 221.723 718.962 213.158 722.115 206.475C725.348 197.503 727.724 190.546 730.002 181.176Z" fill="#FDFCEF"/>
<path d="M730.002 181.176C745.071 186.542 769.195 196.327 783.003 204.063C783.915 205.848 784.889 207.685 785.752 209.484C774.663 209.621 752.124 209.211 742.787 213.811C738.727 207.614 729.536 210.292 722.115 206.475C725.348 197.503 727.724 190.546 730.002 181.176Z" fill="#E6572B"/>
<path d="M718.349 230.36C716.923 230.718 716.212 229.906 715.416 229.06C713.965 221.723 718.962 213.158 722.115 206.475C729.536 210.292 738.727 207.614 742.786 213.811L734.202 219.049C729.395 222.075 722.084 226.369 718.349 230.36Z" fill="#D14A24"/>
<path d="M734.202 219.049C736.278 225.496 750.404 217.953 751.757 238.251L747.973 238.67C739.744 235.197 727.118 228.937 718.35 230.36C722.085 226.37 729.396 222.075 734.202 219.049Z" fill="#F0D4B7"/>
<path d="M827.769 294.713C834.045 295.906 847.46 304.011 851.214 309.811C851.722 310.604 852.947 313.054 853.583 314.125C853.528 315.432 852.818 318.633 852.53 320.078C844.448 311.458 836.188 303.002 827.769 294.713Z" fill="#BE3F1F"/>
<path d="M301.077 745.744C306.193 741.06 311.747 736.51 317.064 732.028C325.135 739.051 332.192 744.807 340.999 750.918C347.391 755.333 353.973 759.46 360.726 763.293C353.289 770.53 344.83 778.563 337.742 786.089C333.158 790.901 329.036 795.249 324.138 799.761C319.208 805.505 312.89 811.726 307.638 817.426C299.266 826.55 291.07 835.838 283.054 845.28C266.518 833.23 248.722 813.244 239.12 795.371C247.001 788.703 257.056 781.313 265.32 774.847C277.399 765.344 289.319 755.639 301.077 745.744Z" fill="#FDFCEF"/>
<path d="M301.076 745.744C306.193 741.06 311.746 736.51 317.063 732.028C325.134 739.051 332.191 744.807 340.998 750.918C347.39 755.333 353.973 759.46 360.725 763.293C353.288 770.53 344.829 778.563 337.742 786.089C333.157 790.901 329.036 795.249 324.137 799.761C324.458 795.598 328.257 784.46 329.624 779.457C319.755 770.567 307.95 757.151 301.076 745.744Z" fill="#F0D4B7"/>
<path d="M340.998 750.918C347.39 755.333 353.972 759.46 360.725 763.293C353.288 770.53 344.829 778.563 337.741 786.089C333.938 783.462 332.928 782.611 329.691 779.311C331.239 774.535 332.609 770.395 334.597 765.797C336.659 761.027 339.751 755.872 340.998 750.918Z" fill="#E69E75"/>
<path d="M392.274 473.056C411.18 475.172 416.976 475.474 436.024 471.82C435.468 474.405 432.901 486.671 432.082 488.204C422.868 505.462 396.862 550.47 384.291 564.066C379.617 570.599 367.467 587.119 361.365 591.495C346.139 583.08 332.52 572.037 321.141 558.878C324.253 554.238 330.817 546.392 334.533 541.763C346.744 526.794 359.229 512.051 371.983 497.543L392.274 473.056Z" fill="#E6572B"/>
<path d="M392.275 473.056C411.18 475.172 416.976 475.474 436.024 471.82C435.468 474.405 432.901 486.671 432.082 488.204C422.868 505.462 396.862 550.47 384.291 564.066C385.053 543.51 390.696 525.654 397.058 506.398C390.1 503.028 379.389 498.986 371.983 497.543L392.275 473.056Z" fill="#D14A24"/>
<path d="M589.41 178.219C597.861 166.127 610.366 155.238 624.581 150.754C641.646 152.643 666.61 156.299 683.179 161.035C689.081 174.803 692.761 186.492 695.094 201.381C696.251 209.633 697.335 221.063 696.11 229.378C680.968 230.262 669.965 230.444 656.88 238.754C659.886 238.882 663.554 238.933 666.493 239.24L654.804 239.268C651.455 240.257 649.716 240.716 647.61 243.633C642.172 238.405 634.439 243.52 628.543 246.205C626.773 244.923 626.736 244.764 625.408 243.126C626.185 241.965 626.075 242.124 626.626 240.853C623.467 236.759 601.111 237.045 595.207 236.975C603.291 228.754 611.564 225.152 622.634 222.675C626.932 225.757 637.011 233.894 641.768 234.408C648.963 230.195 636.209 184.774 631.359 182.24C628.353 185.726 632.97 204.471 633.808 209.148C626.057 202.797 618.446 196.429 610.09 190.886C603.344 186.411 596.308 182.495 589.41 178.219Z" fill="#D84F27"/>
<path d="M624.581 150.754C641.646 152.643 666.61 156.299 683.179 161.035C689.081 174.803 692.761 186.492 695.094 201.381C670.155 191.949 663.138 194.628 649.961 216.411C645.92 199.977 639.472 182.795 633.104 167.082C631.145 162.254 626.32 155.726 624.581 150.754Z" fill="#FDFCEF"/>
<path d="M849.315 663.187C854.838 653.837 858.99 646.14 863.845 636.417C869.362 647.236 875.069 657.958 880.972 668.575C899.016 697.966 913.142 718.098 935.412 744.777C926.349 757.029 915.144 767.554 902.341 775.827C894.583 767.707 874.242 745.181 868.462 736.088C862.805 729.193 857.477 722.036 852.499 714.633C845.831 705.589 839.176 694.194 833.396 684.563C838.992 677.656 844.301 670.528 849.315 663.187Z" fill="#FDFCEF"/>
<path d="M849.315 663.187C854.838 653.837 858.99 646.14 863.845 636.417C869.362 647.236 875.069 657.958 880.972 668.575C873.471 677.888 867.011 685.989 860.061 695.786C863.343 703.93 869.485 728.048 868.462 736.088C862.805 729.193 857.477 722.036 852.499 714.633C845.831 705.589 839.176 694.194 833.396 684.563C838.992 677.656 844.301 670.528 849.315 663.187Z" fill="#F0D4B7"/>
<path d="M849.315 663.188C853.265 673.401 857.967 684.281 860 694.935C858.335 699.491 853.418 710.849 852.499 714.633C845.831 705.59 839.176 694.195 833.396 684.563C838.992 677.656 844.301 670.529 849.315 663.188Z" fill="#D14A24"/>
<path d="M921.372 827.248C926.533 833.218 931.726 839.157 936.955 845.072C950.236 859.382 963.896 873.342 977.912 886.942C967.539 901.123 951.736 916.7 936.606 925.743C933.514 927.678 929.766 930.17 926.644 931.922C926.282 932.24 923.233 933.948 922.621 934.303C912.848 917.649 902.127 899.843 892.863 882.992C890.328 879.674 880.849 862.009 878.541 857.851C884.817 854.312 890.983 850.595 897.039 846.701C906.419 840.076 912.836 834.932 921.372 827.248Z" fill="#FDFCEF"/>
<path d="M921.372 827.248C926.533 833.218 931.726 839.157 936.955 845.072C930.764 854.838 920.037 864.862 911.03 872.099C915.249 879.3 929.289 902.66 929.43 910.375C931.407 916.363 934.291 920.19 936.606 925.743C933.514 927.678 929.766 930.17 926.644 931.922C926.282 932.24 923.233 933.948 922.621 934.303C912.848 917.649 902.127 899.843 892.863 882.992C890.328 879.674 880.849 862.009 878.541 857.851C884.817 854.312 890.983 850.595 897.039 846.701C906.419 840.076 912.836 834.932 921.372 827.248Z" fill="#E6572B"/>
<path d="M897.039 846.701C901.013 854.753 906.229 861.837 910.724 871.426C908.826 873.018 906.952 874.377 905.109 875.792C902.451 877.831 894.406 880.874 892.863 882.992C890.328 879.674 880.849 862.009 878.541 857.851C884.817 854.312 890.983 850.595 897.039 846.701Z" fill="#D14A24"/>
<path d="M929.43 910.375C931.408 916.363 934.292 920.19 936.606 925.744C933.514 927.679 929.767 930.171 926.644 931.922C925.915 925.958 928.083 916.131 929.43 910.375Z" fill="#E69E75"/>
<path d="M524.871 447.141C536.272 452.551 543.43 457.141 553.544 464.909C545.464 466.603 541.38 469.326 536.231 475.946C526.812 491.531 523.903 510.195 528.129 527.908C535.732 560.053 565.012 576.529 585.831 543.065C588.146 545.073 591.428 547.645 592.639 550.381C580.844 580.955 551.18 584.128 525.651 567.978C492.4 546.94 485.122 493.657 506.05 461.753C511.903 453.987 515.641 450.744 524.871 447.141Z" fill="#FDFCEF"/>
<path d="M524.871 447.141C536.273 452.551 543.43 457.141 553.544 464.909C545.464 466.603 541.38 469.326 536.231 475.946C529.077 471.681 514.093 465.253 506.05 461.753C511.903 453.987 515.642 450.744 524.871 447.141Z" fill="#F0D4B7"/>
<path d="M873.392 345.641C914.343 340.138 965.69 331.86 1006.83 332.495C1005.38 351.086 997.591 372.9 989.932 389.913C983.466 391.88 968.519 409.531 962.721 406.549C964.252 403.957 965.733 401.336 967.16 398.688C971.752 390.074 985.621 358.785 982.97 350.056C978.769 347.499 948.356 355.886 942.055 357.448C924.782 361.774 907.485 365.984 890.157 370.078C885.025 361.867 878.994 353.588 873.392 345.641Z" fill="#FDFCEF"/>
<path d="M884.272 525.934C885.969 528.085 890.989 538.479 892.386 541.548C902.048 562.793 915.727 582.019 926.534 602.404C919.737 610.024 911.489 616.781 903.48 623.087C897.584 627.637 891.387 631.788 884.94 635.511C880.954 627.686 876.974 619.983 873.318 611.998C875.725 601.329 878.309 591.92 880.127 580.973C883.164 562.695 884.132 544.441 884.272 525.934Z" fill="#E6572B"/>
<path d="M807.905 484.335C814.549 478.468 819.264 475.353 826.813 470.755C832.563 477.734 835.128 482.024 837.988 490.56C846.462 522.359 838.3 574.556 801.029 583.718L794.196 581.202C786.665 578.23 784.699 575.196 780.168 568.784C782.519 569.634 785.03 570.409 787.418 571.189C813.992 569.611 820.403 533.298 819.521 512.354C816.165 514.955 813.447 516.881 809.081 515.164C807.611 513.706 807.336 513.015 807.164 510.967C806.509 503.272 815.553 506.005 818.235 503.183L817.819 500.561C815.982 493.192 813.9 489.102 807.905 484.335Z" fill="#FDFCEF"/>
<path d="M807.905 484.335C814.549 478.468 819.264 475.353 826.813 470.755C832.563 477.734 835.128 482.024 837.988 490.56C831.565 491.687 822.478 496.136 817.819 500.561C815.982 493.192 813.9 489.102 807.905 484.335Z" fill="#F0D4B7"/>
<path d="M780.168 568.783C782.519 569.634 785.03 570.409 787.418 571.189C789.855 574.213 792.977 577.606 794.196 581.201C786.665 578.23 784.699 575.195 780.168 568.783Z" fill="#F0D4B7"/>
<path d="M445.479 289.677C445.916 273.19 449.307 246.678 453.845 230.359C454.45 228.184 456.048 227.622 457.819 226.865C462.425 228.016 477.003 228.413 482.506 228.739C495.275 229.453 508.008 230.722 520.667 232.544C511.344 232.786 493.45 232.241 486.102 237.316C498.582 239.343 510.184 240.961 522.784 243.17C515.397 247.342 507.492 251.242 499.931 255.298C493.702 258.639 486.128 263.736 480.215 266.712C468.47 274.113 456.888 281.77 445.479 289.677Z" fill="#E6572B"/>
<path d="M480.215 266.712C481.028 258.884 486.569 243.652 486.102 237.316C498.582 239.343 510.184 240.961 522.784 243.17C515.397 247.342 507.491 251.242 499.93 255.297C493.702 258.639 486.127 263.736 480.215 266.712Z" fill="#BE3F1F"/>
<path d="M323.185 372.119C327.891 374.701 345.191 398.661 352.475 396.688C354.158 398.502 358.053 405.227 359.896 407.753C380.864 436.485 416.613 448.384 450.184 438.389C426.807 458.089 399.656 457.334 373.285 442.922C346.104 428.068 331.557 401.081 323.185 372.119Z" fill="#F0D4B7"/>
<path d="M962.721 406.549C968.519 409.531 983.466 391.88 989.932 389.913C970.718 432.458 928.909 472.154 878.958 465.29L876.949 455.668C909.903 455.844 935.559 442.152 955.894 416.013C957.792 413.573 960.817 408.522 962.721 406.549Z" fill="#F0D4B7"/>
<path d="M344.49 1003.26L346.321 1003.16L347.018 1003.86C346.916 1005.91 341.666 1015.99 340.302 1019.03C329.466 1043.2 321.187 1066.53 316.933 1092.71L309.249 1089.24C304.62 1086.2 304.367 1085.58 302.171 1080.42C303.273 1060.9 320.025 1023.52 329.06 1005.56C334.829 1003.98 338.583 1003.64 344.49 1003.26Z" fill="#4A4A4A"/>
<path d="M907.944 1005.67C911.061 1005.44 915.328 1005.53 918.561 1005.5C926.778 1019.37 947.37 1063.53 946.115 1081.82C945.895 1085.03 941.615 1088.13 938.908 1089.8L932.559 1092.39C929.087 1071.8 922.927 1051.77 914.245 1032.79C911.624 1026.93 903.358 1011.68 902.194 1006.57C903.939 1005.66 905.856 1005.8 907.944 1005.67Z" fill="#747474"/>
<path d="M396.805 581.498C399.905 576.327 406.218 568.04 409.935 562.698C415.869 554.142 421.531 545.401 426.913 536.488C427.509 550.954 427.725 566.004 431.336 580.093C424.779 585.323 417.949 592.306 413.133 599.175C410.893 592.633 409.106 583.962 407.783 577.174C404.01 578.775 400.926 580.95 396.805 581.498Z" fill="#F0D4B7"/>
<path d="M592.035 521.991C595.399 532.959 594.827 539.172 592.638 550.381C591.428 547.646 588.145 545.073 585.83 543.065C588.942 535.494 590.776 530.084 592.035 521.991Z" fill="#F0D4B7"/>
<path d="M536.571 495.848C540.445 496.347 544.6 497.976 545.143 502.232C543.753 504.37 543.941 503.782 541.227 505.066C537.487 504.918 532.801 503.925 532.509 499.525C533.458 497.299 534.443 497.049 536.571 495.848Z" fill="#747474"/>
<path d="M564.651 476.632C566.714 477.963 571.033 482.576 570.973 485.04C567.444 484.941 565.3 485.592 563.389 482.342C563.298 479.746 563.71 479.147 564.651 476.632Z" fill="#F0D4B7"/>
<path d="M718.791 192.249L719.207 192.931C718.479 196.006 716.574 198.9 714.995 201.707C712.264 198.202 716.397 194.853 718.791 192.249Z" fill="#BE3F1F"/>
<path d="M192.324 548.094C193.98 547.845 195.565 547.642 197.237 547.878C205.846 549.091 253.203 576.751 258.069 584.135C259.219 585.879 259.449 588.145 258.991 590.151C258.45 592.517 256.929 594.763 254.828 596.01C251.804 597.806 248.603 597.122 245.39 596.336C234.812 593.515 184.602 576.303 178.552 568.971C177.449 567.634 177.118 566.425 177.41 564.695C178.376 558.983 187.61 551.137 192.324 548.094Z" fill="#E6572B"/>
<path d="M236.066 476.448C240.391 476.273 244.596 477.486 246.806 481.571C256.879 500.206 266.647 519.936 274.104 539.749C276.965 547.345 273.869 554.542 264.522 550.908C250.285 534.77 234.117 510.581 223.2 491.911C219.192 485.058 230.539 478.222 236.066 476.448Z" fill="#E6572B"/>
<path d="M1024.74 747.912C1035.11 747.667 1045.68 747.93 1055.91 748.182C1064.71 748.5 1072.17 753.172 1070.76 762.877C1068.39 779.127 1050.24 773.127 1039.23 771.143C1032.49 769.912 997.237 763.63 993.795 760.666C976.498 745.818 1018.48 748.041 1024.74 747.912Z" fill="#E6572B"/>
<path d="M1020.06 669.353C1021.5 669.267 1022.97 669.151 1024.4 669.243C1027.91 669.469 1031.56 671.575 1033.67 674.349C1035.76 677.105 1037.31 681.017 1036.57 684.507C1034.68 693.49 994.291 720.039 985.291 726.199C973.063 734.037 970.112 724.05 972.598 720.615C980.937 709.085 1008.65 674.857 1020.06 669.353Z" fill="#E6572B"/>
</svg>
